<svg xmlns="http://www.w3.org/2000/svg" version="1.1" xmlns:xlink="http://www.w3.org/1999/xlink" xmlns:svgjs="http://svgjs.dev/svgjs" width="1440" height="560" preserveAspectRatio="none" viewBox="0 0 1440 560"><g mask="url(&quot;#SvgjsMask1000&quot;)" fill="none"><rect width="1440" height="560" x="0" y="0" fill="#0e2a47"></rect><path d="M-45.01 358.47L-45.01 358.47" stroke="#2a4a85" stroke-width="1.5"></path><path d="M-45.01 358.47L44.64 378.9" stroke="#2a4a85" stroke-width="1.5"></path><path d="M-45.01 358.47L-81 549.13" stroke="#4a6fa5" stroke-width="1.5"></path><path d="M-45.01 358.47L88.31 513.84" stroke="#4a6fa5" stroke-width="1.5"></path><path d="M-45.01 358.47L-66.02 665.41" stroke="#132e65" stroke-width="1.5"></path><path d="M-45.01 358.47L244.05 522.63" stroke="#132e65" stroke-width="1.5"></path><path d="M-45.01 358.47L66.13 680.95" stroke="#132e65" stroke-width="1.5"></path><path d="M-81 549.13L-81 549.13" stroke="#132e65" stroke-width="1.5"></path><path d="M-81 549.13L-66.02 665.41" stroke="#132e65" stroke-width="1.5"></path><path d="M-81 549.13L88.31 513.84" stroke="#132e65" stroke-width="1.5"></path><path d="M-81 549.13L66.13 680.95" stroke="#132e65" stroke-width="1.5"></path><path d="M-81 549.13L44.64 378.9" stroke="#132e65" stroke-width="1.5"></path><path d="M-66.02 665.41L-66.02 665.41" stroke="#132e65" stroke-width="1.5"></path><path d="M-66.02 665.41L66.13 680.95" stroke="#132e65" stroke-width="1.5"></path><path d="M44.64 378.9L44.64 378.9" stroke="#132e65" stroke-width="1.5"></path><path d="M44.64 378.9L88.31 513.84" stroke="#132e65" stroke-width="1.5"></path><path d="M88.31 513.84L88.31 513.84" stroke="#132e65" stroke-width="1.5"></path><path d="M88.31 513.84L244.05 522.63" stroke="#132e65" stroke-width="1.5"></path><path d="M88.31 513.84L66.13 680.95" stroke="#132e65" stroke-width="1.5"></path><path d="M88.31 513.84L200.9 677.34" stroke="#132e65" stroke-width="1.5"></path><path d="M66.13 680.95L66.13 680.95" stroke="#132e65" stroke-width="1.5"></path><path d="M66.13 680.95L200.9 677.34" stroke="#132e65" stroke-width="1.5"></path><path d="M66.13 680.95L244.05 522.63" stroke="#132e65" stroke-width="1.5"></path><path d="M244.05 522.63L244.05 522.63" stroke="#132e65" stroke-width="1.5"></path><path d="M244.05 522.63L401.46 508.43" stroke="#132e65" stroke-width="1.5"></path><path d="M244.05 522.63L200.9 677.34" stroke="#132e65" stroke-width="1.5"></path><path d="M244.05 522.63L400.28 660.03" stroke="#132e65" stroke-width="1.5"></path><path d="M244.05 522.63L387.1 355.66" stroke="#132e65" stroke-width="1.5"></path><path d="M200.9 677.34L200.9 677.34" stroke="#132e65" stroke-width="1.5"></path><path d="M387.1 355.66L387.1 355.66" stroke="#132e65" stroke-width="1.5"></path><path d="M387.1 355.66L401.46 508.43" stroke="#132e65" stroke-width="1.5"></path><path d="M387.1 355.66L555.15 397.33" stroke="#132e65" stroke-width="1.5"></path><path d="M387.1 355.66L519.92 540.92" stroke="#132e65" stroke-width="1.5"></path><path d="M387.1 355.66L400.28 660.03" stroke="#132e65" stroke-width="1.5"></path><path d="M401.46 508.43L401.46 508.43" stroke="#132e65" stroke-width="1.5"></path><path d="M401.46 508.43L519.92 540.92" stroke="#132e65" stroke-width="1.5"></path><path d="M401.46 508.43L400.28 660.03" stroke="#132e65" stroke-width="1.5"></path><path d="M400.28 660.03L400.28 660.03" stroke="#132e65" stroke-width="1.5"></path><path d="M400.28 660.03L527.96 707.1" stroke="#132e65" stroke-width="1.5"></path><path d="M400.28 660.03L519.92 540.92" stroke="#132e65" stroke-width="1.5"></path><path d="M400.28 660.03L200.9 677.34" stroke="#132e65" stroke-width="1.5"></path><path d="M555.15 397.33L555.15 397.33" stroke="#132e65" stroke-width="1.5"></path><path d="M555.15 397.33L694.17 360.65" stroke="#132e65" stroke-width="1.5"></path><path d="M555.15 397.33L519.92 540.92" stroke="#132e65" stroke-width="1.5"></path><path d="M555.15 397.33L401.46 508.43" stroke="#132e65" stroke-width="1.5"></path><path d="M555.15 397.33L712.41 239.23" stroke="#132e65" stroke-width="1.5"></path><path d="M519.92 540.92L519.92 540.92" stroke="#132e65" stroke-width="1.5"></path><path d="M519.92 540.92L527.96 707.1" stroke="#132e65" stroke-width="1.5"></path><path d="M519.92 540.92L693.62 699.22" stroke="#132e65" stroke-width="1.5"></path><path d="M527.96 707.1L527.96 707.1" stroke="#132e65" stroke-width="1.5"></path><path d="M527.96 707.1L693.62 699.22" stroke="#132e65" stroke-width="1.5"></path><path d="M712.41 239.23L712.41 239.23" stroke="#132e65" stroke-width="1.5"></path><path d="M712.41 239.23L826.08 235.87" stroke="#132e65" stroke-width="1.5"></path><path d="M712.41 239.23L694.17 360.65" stroke="#132e65" stroke-width="1.5"></path><path d="M694.17 360.65L694.17 360.65" stroke="#132e65" stroke-width="1.5"></path><path d="M693.62 699.22L693.62 699.22" stroke="#132e65" stroke-width="1.5"></path><path d="M693.62 699.22L827.21 639.81" stroke="#132e65" stroke-width="1.5"></path><path d="M693.62 699.22L795.44 510.01" stroke="#132e65" stroke-width="1.5"></path><path d="M826.08 235.87L826.08 235.87" stroke="#132e65" stroke-width="1.5"></path><path d="M826.08 235.87L966.41 192.89" stroke="#132e65" stroke-width="1.5"></path><path d="M826.08 235.87L694.17 360.65" stroke="#132e65" stroke-width="1.5"></path><path d="M826.08 235.87L960.32 108.45" stroke="#132e65" stroke-width="1.5"></path><path d="M826.08 235.87L1002.61 379.38" stroke="#132e65" stroke-width="1.5"></path><path d="M795.44 510.01L795.44 510.01" stroke="#132e65" stroke-width="1.5"></path><path d="M795.44 510.01L827.21 639.81" stroke="#132e65" stroke-width="1.5"></path><path d="M795.44 510.01L694.17 360.65" stroke="#132e65" stroke-width="1.5"></path><path d="M827.21 639.81L827.21 639.81" stroke="#132e65" stroke-width="1.5"></path><path d="M827.21 639.81L956.44 706.67" stroke="#132e65" stroke-width="1.5"></path><path d="M939.5 -50.31L939.5 -50.31" stroke="#132e65" stroke-width="1.5"></path><path d="M939.5 -50.31L960.32 108.45" stroke="#132e65" stroke-width="1.5"></path><path d="M939.5 -50.31L1126.06 -105.82" stroke="#132e65" stroke-width="1.5"></path><path d="M939.5 -50.31L1153.43 43.94" stroke="#132e65" stroke-width="1.5"></path><path d="M939.5 -50.31L966.41 192.89" stroke="#132e65" stroke-width="1.5"></path><path d="M960.32 108.45L960.32 108.45" stroke="#132e65" stroke-width="1.5"></path><path d="M960.32 108.45L966.41 192.89" stroke="#132e65" stroke-width="1.5"></path><path d="M960.32 108.45L1104.48 204.53" stroke="#132e65" stroke-width="1.5"></path><path d="M966.41 192.89L966.41 192.89" stroke="#132e65" stroke-width="1.5"></path><path d="M966.41 192.89L1104.48 204.53" stroke="#132e65" stroke-width="1.5"></path><path d="M966.41 192.89L1002.61 379.38" stroke="#132e65" stroke-width="1.5"></path><path d="M966.41 192.89L1095.52 375.02" stroke="#132e65" stroke-width="1.5"></path><path d="M966.41 192.89L1153.43 43.94" stroke="#132e65" stroke-width="1.5"></path><path d="M1002.61 379.38L1002.61 379.38" stroke="#132e65" stroke-width="1.5"></path><path d="M1002.61 379.38L1095.52 375.02" stroke="#132e65" stroke-width="1.5"></path><path d="M1002.61 379.38L1006.93 510.47" stroke="#132e65" stroke-width="1.5"></path><path d="M1006.93 510.47L1006.93 510.47" stroke="#132e65" stroke-width="1.5"></path><path d="M1006.93 510.47L1160.59 537.26" stroke="#132e65" stroke-width="1.5"></path><path d="M1006.93 510.47L1095.52 375.02" stroke="#132e65" stroke-width="1.5"></path><path d="M1006.93 510.47L956.44 706.67" stroke="#132e65" stroke-width="1.5"></path><path d="M1006.93 510.47L1126.47 678.78" stroke="#132e65" stroke-width="1.5"></path><path d="M1006.93 510.47L795.44 510.01" stroke="#132e65" stroke-width="1.5"></path><path d="M956.44 706.67L956.44 706.67" stroke="#132e65" stroke-width="1.5"></path><path d="M956.44 706.67L1126.47 678.78" stroke="#132e65" stroke-width="1.5"></path><path d="M1126.06 -105.82L1126.06 -105.82" stroke="#132e65" stroke-width="1.5"></path><path d="M1126.06 -105.82L1153.43 43.94" stroke="#132e65" stroke-width="1.5"></path><path d="M1126.06 -105.82L1243.4 57.84" stroke="#132e65" stroke-width="1.5"></path><path d="M1126.06 -105.82L960.32 108.45" stroke="#132e65" stroke-width="1.5"></path><path d="M1126.06 -105.82L1422.29 -76.7" stroke="#132e65" stroke-width="1.5"></path><path d="M1153.43 43.94L1153.43 43.94" stroke="#132e65" stroke-width="1.5"></path><path d="M1153.43 43.94L1243.4 57.84" stroke="#132e65" stroke-width="1.5"></path><path d="M1153.43 43.94L1104.48 204.53" stroke="#132e65" stroke-width="1.5"></path><path d="M1104.48 204.53L1104.48 204.53" stroke="#132e65" stroke-width="1.5"></path><path d="M1104.48 204.53L1095.52 375.02" stroke="#132e65" stroke-width="1.5"></path><path d="M1095.52 375.02L1095.52 375.02" stroke="#132e65" stroke-width="1.5"></path><path d="M1095.52 375.02L1241.38 387.23" stroke="#132e65" stroke-width="1.5"></path><path d="M1160.59 537.26L1160.59 537.26" stroke="#132e65" stroke-width="1.5"></path><path d="M1160.59 537.26L1274.1 546.24" stroke="#132e65" stroke-width="1.5"></path><path d="M1160.59 537.26L1126.47 678.78" stroke="#132e65" stroke-width="1.5"></path><path d="M1160.59 537.26L1241.38 387.23" stroke="#132e65" stroke-width="1.5"></path><path d="M1160.59 537.26L1095.52 375.02" stroke="#132e65" stroke-width="1.5"></path><path d="M1126.47 678.78L1126.47 678.78" stroke="#132e65" stroke-width="1.5"></path><path d="M1126.47 678.78L1247.29 695.17" stroke="#132e65" stroke-width="1.5"></path><path d="M1126.47 678.78L1274.1 546.24" stroke="#132e65" stroke-width="1.5"></path><path d="M1243.4 57.84L1243.4 57.84" stroke="#132e65" stroke-width="1.5"></path><path d="M1243.4 57.84L1438.37 43.89" stroke="#132e65" stroke-width="1.5"></path><path d="M1243.4 57.84L1308.75 246.54" stroke="#132e65" stroke-width="1.5"></path><path d="M1243.4 57.84L1104.48 204.53" stroke="#132e65" stroke-width="1.5"></path><path d="M1243.4 57.84L1422.29 -76.7" stroke="#132e65" stroke-width="1.5"></path><path d="M1308.75 246.54L1308.75 246.54" stroke="#132e65" stroke-width="1.5"></path><path d="M1308.75 246.54L1414.95 344.97" stroke="#132e65" stroke-width="1.5"></path><path d="M1241.38 387.23L1241.38 387.23" stroke="#132e65" stroke-width="1.5"></path><path d="M1241.38 387.23L1308.75 246.54" stroke="#132e65" stroke-width="1.5"></path><path d="M1274.1 546.24L1274.1 546.24" stroke="#132e65" stroke-width="1.5"></path><path d="M1274.1 546.24L1247.29 695.17" stroke="#132e65" stroke-width="1.5"></path><path d="M1274.1 546.24L1241.38 387.23" stroke="#132e65" stroke-width="1.5"></path><path d="M1274.1 546.24L1438.9 561.66" stroke="#132e65" stroke-width="1.5"></path><path d="M1247.29 695.17L1247.29 695.17" stroke="#132e65" stroke-width="1.5"></path><path d="M1247.29 695.17L1160.59 537.26" stroke="#132e65" stroke-width="1.5"></path><path d="M1247.29 695.17L1453.25 660.4" stroke="#132e65" stroke-width="1.5"></path><path d="M1247.29 695.17L1438.9 561.66" stroke="#132e65" stroke-width="1.5"></path><path d="M1247.29 695.17L956.44 706.67" stroke="#132e65" stroke-width="1.5"></path><path d="M1422.29 -76.7L1422.29 -76.7" stroke="#132e65" stroke-width="1.5"></path><path d="M1422.29 -76.7L1438.37 43.89" stroke="#132e65" stroke-width="1.5"></path><path d="M1422.29 -76.7L1601.19 -88.85" stroke="#132e65" stroke-width="1.5"></path><path d="M1422.29 -76.7L1592.26 47.61" stroke="#132e65" stroke-width="1.5"></path><path d="M1422.29 -76.7L1462.22 207.39" stroke="#132e65" stroke-width="1.5"></path><path d="M1422.29 -76.7L1153.43 43.94" stroke="#132e65" stroke-width="1.5"></path><path d="M1438.37 43.89L1438.37 43.89" stroke="#132e65" stroke-width="1.5"></path><path d="M1462.22 207.39L1462.22 207.39" stroke="#132e65" stroke-width="1.5"></path><path d="M1462.22 207.39L1594.03 232.09" stroke="#132e65" stroke-width="1.5"></path><path d="M1462.22 207.39L1414.95 344.97" stroke="#132e65" stroke-width="1.5"></path><path d="M1462.22 207.39L1308.75 246.54" stroke="#132e65" stroke-width="1.5"></path><path d="M1414.95 344.97L1414.95 344.97" stroke="#132e65" stroke-width="1.5"></path><path d="M1414.95 344.97L1580.22 377.33" stroke="#132e65" stroke-width="1.5"></path><path d="M1414.95 344.97L1241.38 387.23" stroke="#132e65" stroke-width="1.5"></path><path d="M1438.9 561.66L1438.9 561.66" stroke="#132e65" stroke-width="1.5"></path><path d="M1438.9 561.66L1453.25 660.4" stroke="#132e65" stroke-width="1.5"></path><path d="M1438.9 561.66L1602.02 536.49" stroke="#132e65" stroke-width="1.5"></path><path d="M1438.9 561.66L1602.62 644.76" stroke="#132e65" stroke-width="1.5"></path><path d="M1438.9 561.66L1414.95 344.97" stroke="#132e65" stroke-width="1.5"></path><path d="M1453.25 660.4L1453.25 660.4" stroke="#132e65" stroke-width="1.5"></path><path d="M1453.25 660.4L1602.62 644.76" stroke="#132e65" stroke-width="1.5"></path><path d="M1453.25 660.4L1602.02 536.49" stroke="#132e65" stroke-width="1.5"></path><path d="M1601.19 -88.85L1601.19 -88.85" stroke="#132e65" stroke-width="1.5"></path><path d="M1601.19 -88.85L1592.26 47.61" stroke="#132e65" stroke-width="1.5"></path><path d="M1592.26 47.61L1592.26 47.61" stroke="#132e65" stroke-width="1.5"></path><path d="M1592.26 47.61L1438.37 43.89" stroke="#132e65" stroke-width="1.5"></path><path d="M1594.03 232.09L1594.03 232.09" stroke="#132e65" stroke-width="1.5"></path><path d="M1594.03 232.09L1580.22 377.33" stroke="#132e65" stroke-width="1.5"></path><path d="M1580.22 377.33L1580.22 377.33" stroke="#132e65" stroke-width="1.5"></path><path d="M1580.22 377.33L1602.02 536.49" stroke="#132e65" stroke-width="1.5"></path><path d="M1602.02 536.49L1602.02 536.49" stroke="#132e65" stroke-width="1.5"></path><path d="M1602.02 536.49L1602.62 644.76" stroke="#132e65" stroke-width="1.5"></path><path d="M1602.62 644.76L1602.62 644.76" stroke="#132e65" stroke-width="1.5"></path><path d="M1602.62 644.76L1580.22 377.33" stroke="#132e65" stroke-width="1.5"></path><path d="M1602.62 644.76L1274.1 546.24" stroke="#132e65" stroke-width="1.5"></path><path d="M1602.62 644.76L1414.95 344.97" stroke="#132e65" stroke-width="1.5"></path><circle r="5" cx="-45.01" cy="358.47" fill="#4a6fa5"></circle><circle r="5" cx="-81" cy="549.13" fill="#132e65"></circle><circle r="5" cx="-66.02" cy="665.41" fill="#132e65"></circle><circle r="5" cx="44.64" cy="378.9" fill="#132e65"></circle><circle r="5" cx="88.31" cy="513.84" fill="#132e65"></circle><circle r="5" cx="66.13" cy="680.95" fill="#132e65"></circle><circle r="5" cx="244.05" cy="522.63" fill="#132e65"></circle><circle r="5" cx="200.9" cy="677.34" fill="#132e65"></circle><circle r="5" cx="387.1" cy="355.66" fill="#132e65"></circle><circle r="5" cx="401.46" cy="508.43" fill="#132e65"></circle><circle r="5" cx="400.28" cy="660.03" fill="#132e65"></circle><circle r="5" cx="555.15" cy="397.33" fill="#132e65"></circle><circle r="5" cx="519.92" cy="540.92" fill="#132e65"></circle><circle r="5" cx="527.96" cy="707.1" fill="#132e65"></circle><circle r="5" cx="712.41" cy="239.23" fill="#132e65"></circle><circle r="5" cx="694.17" cy="360.65" fill="#132e65"></circle><circle r="5" cx="693.62" cy="699.22" fill="#132e65"></circle><circle r="5" cx="826.08" cy="235.87" fill="#132e65"></circle><circle r="5" cx="795.44" cy="510.01" fill="#132e65"></circle><circle r="5" cx="827.21" cy="639.81" fill="#132e65"></circle><circle r="5" cx="939.5" cy="-50.31" fill="#132e65"></circle><circle r="5" cx="960.32" cy="108.45" fill="#132e65"></circle><circle r="5" cx="966.41" cy="192.89" fill="#132e65"></circle><circle r="5" cx="1002.61" cy="379.38" fill="#132e65"></circle><circle r="5" cx="1006.93" cy="510.47" fill="#132e65"></circle><circle r="5" cx="956.44" cy="706.67" fill="#132e65"></circle><circle r="5" cx="1126.06" cy="-105.82" fill="#132e65"></circle><circle r="5" cx="1153.43" cy="43.94" fill="#132e65"></circle><circle r="5" cx="1104.48" cy="204.53" fill="#132e65"></circle><circle r="5" cx="1095.52" cy="375.02" fill="#132e65"></circle><circle r="5" cx="1160.59" cy="537.26" fill="#132e65"></circle><circle r="5" cx="1126.47" cy="678.78" fill="#132e65"></circle><circle r="5" cx="1243.4" cy="57.84" fill="#132e65"></circle><circle r="5" cx="1308.75" cy="246.54" fill="#132e65"></circle><circle r="5" cx="1241.38" cy="387.23" fill="#132e65"></circle><circle r="5" cx="1274.1" cy="546.24" fill="#132e65"></circle><circle r="5" cx="1247.29" cy="695.17" fill="#132e65"></circle><circle r="5" cx="1422.29" cy="-76.7" fill="#132e65"></circle><circle r="5" cx="1438.37" cy="43.89" fill="#132e65"></circle><circle r="5" cx="1462.22" cy="207.39" fill="#132e65"></circle><circle r="5" cx="1414.95" cy="344.97" fill="#132e65"></circle><circle r="5" cx="1438.9" cy="561.66" fill="#132e65"></circle><circle r="5" cx="1453.25" cy="660.4" fill="#132e65"></circle><circle r="5" cx="1601.19" cy="-88.85" fill="#132e65"></circle><circle r="5" cx="1592.26" cy="47.61" fill="#132e65"></circle><circle r="5" cx="1594.03" cy="232.09" fill="#132e65"></circle><circle r="5" cx="1580.22" cy="377.33" fill="#132e65"></circle><circle r="5" cx="1602.02" cy="536.49" fill="#132e65"></circle><circle r="5" cx="1602.62" cy="644.76" fill="#132e65"></circle><path d="M49.5 489.78L49.5 489.78" stroke="hsl(228.5, 77.2%, 51.5%)" stroke-width="1.5"></path><path d="M49.5 489.78L-110.71 557.86" stroke="hsl(228.5, 77.2%, 51.5%)" stroke-width="1.5"></path><path d="M49.5 489.78L233.57 507.91" stroke="hsl(228.5, 77.2%, 51.5%)" stroke-width="1.5"></path><path d="M107.51 681.65L107.51 681.65" stroke="hsl(228.5, 77.2%, 51.5%)" stroke-width="1.5"></path><path d="M107.51 681.65L258.11 645.4" stroke="hsl(228.5, 77.2%, 51.5%)" stroke-width="1.5"></path><path d="M107.51 681.65L49.5 489.78" stroke="hsl(228.5, 77.2%, 51.5%)" stroke-width="1.5"></path><path d="M107.51 681.65L233.57 507.91" stroke="hsl(228.5, 77.2%, 51.5%)" stroke-width="1.5"></path><path d="M553.98 689.6L553.98 689.6" stroke="hsl(228.5, 77.2%, 51.5%)" stroke-width="1.5"></path><path d="M553.98 689.6L687.21 708.68" stroke="hsl(228.5, 77.2%, 51.5%)" stroke-width="1.5"></path><path d="M553.98 689.6L354.1 699.57" stroke="hsl(228.5, 77.2%, 51.5%)" stroke-width="1.5"></path><path d="M553.98 689.6L559.4 487.67" stroke="hsl(228.5, 77.2%, 51.5%)" stroke-width="1.5"></path><path d="M553.98 689.6L673.14 513.45" stroke="hsl(228.5, 77.2%, 51.5%)" stroke-width="1.5"></path><path d="M1001.68 556.41L1001.68 556.41" stroke="hsl(228.5, 77.2%, 51.5%)" stroke-width="1.5"></path><path d="M1001.68 556.41L941.19 647.25" stroke="hsl(228.5, 77.2%, 51.5%)" stroke-width="1.5"></path><path d="M1001.68 556.41L1110.91 513.66" stroke="hsl(228.5, 77.2%, 51.5%)" stroke-width="1.5"></path><path d="M1001.68 556.41L1114.64 670.51" stroke="hsl(228.5, 77.2%, 51.5%)" stroke-width="1.5"></path><path d="M1001.68 556.41L982.47 388.02" stroke="hsl(228.5, 77.2%, 51.5%)" stroke-width="1.5"></path><path d="M1001.68 556.41L817.38 546.46" stroke="hsl(228.5, 77.2%, 51.5%)" stroke-width="1.5"></path><path d="M1001.68 556.41L1122.21 409.87" stroke="hsl(228.5, 77.2%, 51.5%)" stroke-width="1.5"></path><path d="M1258.2 47.54L1258.2 47.54" stroke="hsl(228.5, 77.2%, 51.5%)" stroke-width="1.5"></path><path d="M1258.2 47.54L1285.63 -52.43" stroke="hsl(228.5, 77.2%, 51.5%)" stroke-width="1.5"></path><path d="M1416.48 681.08L1416.48 681.08" stroke="hsl(228.5, 77.2%, 51.5%)" stroke-width="1.5"></path><path d="M1416.48 681.08L1307.81 676.17" stroke="hsl(228.5, 77.2%, 51.5%)" stroke-width="1.5"></path><path d="M-110.71 557.86L-110.71 557.86" stroke="hsl(228.5, 77.2%, 51.5%)" stroke-width="1.5"></path><path d="M-110.71 557.86L-111.94 640.44" stroke="hsl(228.5, 77.2%, 51.5%)" stroke-width="1.5"></path><path d="M-110.71 557.86L107.51 681.65" stroke="hsl(228.5, 77.2%, 51.5%)" stroke-width="1.5"></path><path d="M-111.94 640.44L-111.94 640.44" stroke="hsl(228.5, 77.2%, 51.5%)" stroke-width="1.5"></path><path d="M-111.94 640.44L49.5 489.78" stroke="hsl(228.5, 77.2%, 51.5%)" stroke-width="1.5"></path><path d="M-111.94 640.44L107.51 681.65" stroke="hsl(228.5, 77.2%, 51.5%)" stroke-width="1.5"></path><path d="M-111.94 640.44L233.57 507.91" stroke="hsl(228.5, 77.2%, 51.5%)" stroke-width="1.5"></path><path d="M-111.94 640.44L258.11 645.4" stroke="hsl(228.5, 77.2%, 51.5%)" stroke-width="1.5"></path><path d="M-111.94 640.44L354.1 699.57" stroke="hsl(228.5, 77.2%, 51.5%)" stroke-width="1.5"></path><path d="M233.57 507.91L233.57 507.91" stroke="hsl(228.5, 77.2%, 51.5%)" stroke-width="1.5"></path><path d="M233.57 507.91L367.01 545.88" stroke="hsl(228.5, 77.2%, 51.5%)" stroke-width="1.5"></path><path d="M233.57 507.91L258.11 645.4" stroke="hsl(228.5, 77.2%, 51.5%)" stroke-width="1.5"></path><path d="M258.11 645.4L258.11 645.4" stroke="hsl(228.5, 77.2%, 51.5%)" stroke-width="1.5"></path><path d="M258.11 645.4L354.1 699.57" stroke="hsl(228.5, 77.2%, 51.5%)" stroke-width="1.5"></path><path d="M367.01 545.88L367.01 545.88" stroke="hsl(228.5, 77.2%, 51.5%)" stroke-width="1.5"></path><path d="M367.01 545.88L258.11 645.4" stroke="hsl(228.5, 77.2%, 51.5%)" stroke-width="1.5"></path><path d="M354.1 699.57L354.1 699.57" stroke="hsl(228.5, 77.2%, 51.5%)" stroke-width="1.5"></path><path d="M354.1 699.57L367.01 545.88" stroke="hsl(228.5, 77.2%, 51.5%)" stroke-width="1.5"></path><path d="M559.4 487.67L559.4 487.67" stroke="hsl(228.5, 77.2%, 51.5%)" stroke-width="1.5"></path><path d="M559.4 487.67L673.14 513.45" stroke="hsl(228.5, 77.2%, 51.5%)" stroke-width="1.5"></path><path d="M684.32 396.17L684.32 396.17" stroke="hsl(228.5, 77.2%, 51.5%)" stroke-width="1.5"></path><path d="M684.32 396.17L673.14 513.45" stroke="hsl(228.5, 77.2%, 51.5%)" stroke-width="1.5"></path><path d="M684.32 396.17L828.08 410.27" stroke="hsl(228.5, 77.2%, 51.5%)" stroke-width="1.5"></path><path d="M684.32 396.17L559.4 487.67" stroke="hsl(228.5, 77.2%, 51.5%)" stroke-width="1.5"></path><path d="M684.32 396.17L817.38 546.46" stroke="hsl(228.5, 77.2%, 51.5%)" stroke-width="1.5"></path><path d="M684.32 396.17L982.47 388.02" stroke="hsl(228.5, 77.2%, 51.5%)" stroke-width="1.5"></path><path d="M673.14 513.45L673.14 513.45" stroke="hsl(228.5, 77.2%, 51.5%)" stroke-width="1.5"></path><path d="M673.14 513.45L817.38 546.46" stroke="hsl(228.5, 77.2%, 51.5%)" stroke-width="1.5"></path><path d="M673.14 513.45L828.08 410.27" stroke="hsl(228.5, 77.2%, 51.5%)" stroke-width="1.5"></path><path d="M673.14 513.45L687.21 708.68" stroke="hsl(228.5, 77.2%, 51.5%)" stroke-width="1.5"></path><path d="M687.21 708.68L687.21 708.68" stroke="hsl(228.5, 77.2%, 51.5%)" stroke-width="1.5"></path><path d="M828.08 410.27L828.08 410.27" stroke="hsl(228.5, 77.2%, 51.5%)" stroke-width="1.5"></path><path d="M828.08 410.27L817.38 546.46" stroke="hsl(228.5, 77.2%, 51.5%)" stroke-width="1.5"></path><path d="M828.08 410.27L982.47 388.02" stroke="hsl(228.5, 77.2%, 51.5%)" stroke-width="1.5"></path><path d="M828.08 410.27L1001.68 556.41" stroke="hsl(228.5, 77.2%, 51.5%)" stroke-width="1.5"></path><path d="M817.38 546.46L817.38 546.46" stroke="hsl(228.5, 77.2%, 51.5%)" stroke-width="1.5"></path><path d="M817.38 546.46L941.19 647.25" stroke="hsl(228.5, 77.2%, 51.5%)" stroke-width="1.5"></path><path d="M982.47 388.02L982.47 388.02" stroke="hsl(228.5, 77.2%, 51.5%)" stroke-width="1.5"></path><path d="M982.47 388.02L1122.21 409.87" stroke="hsl(228.5, 77.2%, 51.5%)" stroke-width="1.5"></path><path d="M982.47 388.02L1110.91 513.66" stroke="hsl(228.5, 77.2%, 51.5%)" stroke-width="1.5"></path><path d="M982.47 388.02L1104.75 234.77" stroke="hsl(228.5, 77.2%, 51.5%)" stroke-width="1.5"></path><path d="M941.19 647.25L941.19 647.25" stroke="hsl(228.5, 77.2%, 51.5%)" stroke-width="1.5"></path><path d="M1104.75 234.77L1104.75 234.77" stroke="hsl(228.5, 77.2%, 51.5%)" stroke-width="1.5"></path><path d="M1104.75 234.77L1273.38 238.05" stroke="hsl(228.5, 77.2%, 51.5%)" stroke-width="1.5"></path><path d="M1104.75 234.77L1122.21 409.87" stroke="hsl(228.5, 77.2%, 51.5%)" stroke-width="1.5"></path><path d="M1104.75 234.77L1258.2 47.54" stroke="hsl(228.5, 77.2%, 51.5%)" stroke-width="1.5"></path><path d="M1104.75 234.77L1110.91 513.66" stroke="hsl(228.5, 77.2%, 51.5%)" stroke-width="1.5"></path><path d="M1104.75 234.77L828.08 410.27" stroke="hsl(228.5, 77.2%, 51.5%)" stroke-width="1.5"></path><path d="M1122.21 409.87L1122.21 409.87" stroke="hsl(228.5, 77.2%, 51.5%)" stroke-width="1.5"></path><path d="M1122.21 409.87L1110.91 513.66" stroke="hsl(228.5, 77.2%, 51.5%)" stroke-width="1.5"></path><path d="M1110.91 513.66L1110.91 513.66" stroke="hsl(228.5, 77.2%, 51.5%)" stroke-width="1.5"></path><path d="M1110.91 513.66L1114.64 670.51" stroke="hsl(228.5, 77.2%, 51.5%)" stroke-width="1.5"></path><path d="M1114.64 670.51L1114.64 670.51" stroke="hsl(228.5, 77.2%, 51.5%)" stroke-width="1.5"></path><path d="M1114.64 670.51L941.19 647.25" stroke="hsl(228.5, 77.2%, 51.5%)" stroke-width="1.5"></path><path d="M1285.63 -52.43L1285.63 -52.43" stroke="hsl(228.5, 77.2%, 51.5%)" stroke-width="1.5"></path><path d="M1285.63 -52.43L1425.09 -86.12" stroke="hsl(228.5, 77.2%, 51.5%)" stroke-width="1.5"></path><path d="M1285.63 -52.43L1431.46 106.43" stroke="hsl(228.5, 77.2%, 51.5%)" stroke-width="1.5"></path><path d="M1285.63 -52.43L1538.01 72.97" stroke="hsl(228.5, 77.2%, 51.5%)" stroke-width="1.5"></path><path d="M1285.63 -52.43L1441.4 191.17" stroke="hsl(228.5, 77.2%, 51.5%)" stroke-width="1.5"></path><path d="M1285.63 -52.43L1273.38 238.05" stroke="hsl(228.5, 77.2%, 51.5%)" stroke-width="1.5"></path><path d="M1273.38 238.05L1273.38 238.05" stroke="hsl(228.5, 77.2%, 51.5%)" stroke-width="1.5"></path><path d="M1273.38 238.05L1441.4 191.17" stroke="hsl(228.5, 77.2%, 51.5%)" stroke-width="1.5"></path><path d="M1273.38 238.05L1258.2 47.54" stroke="hsl(228.5, 77.2%, 51.5%)" stroke-width="1.5"></path><path d="M1273.38 238.05L1431.46 106.43" stroke="hsl(228.5, 77.2%, 51.5%)" stroke-width="1.5"></path><path d="M1273.38 238.05L1122.21 409.87" stroke="hsl(228.5, 77.2%, 51.5%)" stroke-width="1.5"></path><path d="M1307.81 676.17L1307.81 676.17" stroke="hsl(228.5, 77.2%, 51.5%)" stroke-width="1.5"></path><path d="M1307.81 676.17L1398.4 536.81" stroke="hsl(228.5, 77.2%, 51.5%)" stroke-width="1.5"></path><path d="M1307.81 676.17L1114.64 670.51" stroke="hsl(228.5, 77.2%, 51.5%)" stroke-width="1.5"></path><path d="M1307.81 676.17L1110.91 513.66" stroke="hsl(228.5, 77.2%, 51.5%)" stroke-width="1.5"></path><path d="M1307.81 676.17L1586.13 652.95" stroke="hsl(228.5, 77.2%, 51.5%)" stroke-width="1.5"></path><path d="M1307.81 676.17L1441.09 409.89" stroke="hsl(228.5, 77.2%, 51.5%)" stroke-width="1.5"></path><path d="M1425.09 -86.12L1425.09 -86.12" stroke="hsl(228.5, 77.2%, 51.5%)" stroke-width="1.5"></path><path d="M1425.09 -86.12L1586.25 -71.26" stroke="hsl(228.5, 77.2%, 51.5%)" stroke-width="1.5"></path><path d="M1425.09 -86.12L1431.46 106.43" stroke="hsl(228.5, 77.2%, 51.5%)" stroke-width="1.5"></path><path d="M1431.46 106.43L1431.46 106.43" stroke="hsl(228.5, 77.2%, 51.5%)" stroke-width="1.5"></path><path d="M1431.46 106.43L1441.4 191.17" stroke="hsl(228.5, 77.2%, 51.5%)" stroke-width="1.5"></path><path d="M1431.46 106.43L1538.01 72.97" stroke="hsl(228.5, 77.2%, 51.5%)" stroke-width="1.5"></path><path d="M1431.46 106.43L1258.2 47.54" stroke="hsl(228.5, 77.2%, 51.5%)" stroke-width="1.5"></path><path d="M1441.4 191.17L1441.4 191.17" stroke="hsl(228.5, 77.2%, 51.5%)" stroke-width="1.5"></path><path d="M1441.4 191.17L1575.85 229.38" stroke="hsl(228.5, 77.2%, 51.5%)" stroke-width="1.5"></path><path d="M1441.4 191.17L1538.01 72.97" stroke="hsl(228.5, 77.2%, 51.5%)" stroke-width="1.5"></path><path d="M1441.4 191.17L1441.09 409.89" stroke="hsl(228.5, 77.2%, 51.5%)" stroke-width="1.5"></path><path d="M1441.4 191.17L1544.19 396.64" stroke="hsl(228.5, 77.2%, 51.5%)" stroke-width="1.5"></path><path d="M1441.09 409.89L1441.09 409.89" stroke="hsl(228.5, 77.2%, 51.5%)" stroke-width="1.5"></path><path d="M1441.09 409.89L1544.19 396.64" stroke="hsl(228.5, 77.2%, 51.5%)" stroke-width="1.5"></path><path d="M1441.09 409.89L1398.4 536.81" stroke="hsl(228.5, 77.2%, 51.5%)" stroke-width="1.5"></path><path d="M1441.09 409.89L1550.18 502.04" stroke="hsl(228.5, 77.2%, 51.5%)" stroke-width="1.5"></path><path d="M1398.4 536.81L1398.4 536.81" stroke="hsl(228.5, 77.2%, 51.5%)" stroke-width="1.5"></path><path d="M1398.4 536.81L1416.48 681.08" stroke="hsl(228.5, 77.2%, 51.5%)" stroke-width="1.5"></path><path d="M1398.4 536.81L1550.18 502.04" stroke="hsl(228.5, 77.2%, 51.5%)" stroke-width="1.5"></path><path d="M1398.4 536.81L1544.19 396.64" stroke="hsl(228.5, 77.2%, 51.5%)" stroke-width="1.5"></path><path d="M1398.4 536.81L1586.13 652.95" stroke="hsl(228.5, 77.2%, 51.5%)" stroke-width="1.5"></path><path d="M1586.25 -71.26L1586.25 -71.26" stroke="hsl(228.5, 77.2%, 51.5%)" stroke-width="1.5"></path><path d="M1586.25 -71.26L1538.01 72.97" stroke="hsl(228.5, 77.2%, 51.5%)" stroke-width="1.5"></path><path d="M1586.25 -71.26L1431.46 106.43" stroke="hsl(228.5, 77.2%, 51.5%)" stroke-width="1.5"></path><path d="M1586.25 -71.26L1441.4 191.17" stroke="hsl(228.5, 77.2%, 51.5%)" stroke-width="1.5"></path><path d="M1586.25 -71.26L1575.85 229.38" stroke="hsl(228.5, 77.2%, 51.5%)" stroke-width="1.5"></path><path d="M1538.01 72.97L1538.01 72.97" stroke="hsl(228.5, 77.2%, 51.5%)" stroke-width="1.5"></path><path d="M1575.85 229.38L1575.85 229.38" stroke="hsl(228.5, 77.2%, 51.5%)" stroke-width="1.5"></path><path d="M1575.85 229.38L1538.01 72.97" stroke="hsl(228.5, 77.2%, 51.5%)" stroke-width="1.5"></path><path d="M1575.85 229.38L1544.19 396.64" stroke="hsl(228.5, 77.2%, 51.5%)" stroke-width="1.5"></path><path d="M1575.85 229.38L1431.46 106.43" stroke="hsl(228.5, 77.2%, 51.5%)" stroke-width="1.5"></path><path d="M1575.85 229.38L1441.09 409.89" stroke="hsl(228.5, 77.2%, 51.5%)" stroke-width="1.5"></path><path d="M1575.85 229.38L1550.18 502.04" stroke="hsl(228.5, 77.2%, 51.5%)" stroke-width="1.5"></path><path d="M1544.19 396.64L1544.19 396.64" stroke="hsl(228.5, 77.2%, 51.5%)" stroke-width="1.5"></path><path d="M1544.19 396.64L1550.18 502.04" stroke="hsl(228.5, 77.2%, 51.5%)" stroke-width="1.5"></path><path d="M1550.18 502.04L1550.18 502.04" stroke="hsl(228.5, 77.2%, 51.5%)" stroke-width="1.5"></path><path d="M1550.18 502.04L1586.13 652.95" stroke="hsl(228.5, 77.2%, 51.5%)" stroke-width="1.5"></path><path d="M1550.18 502.04L1416.48 681.08" stroke="hsl(228.5, 77.2%, 51.5%)" stroke-width="1.5"></path><path d="M1586.13 652.95L1586.13 652.95" stroke="hsl(228.5, 77.2%, 51.5%)" stroke-width="1.5"></path><path d="M1586.13 652.95L1416.48 681.08" stroke="hsl(228.5, 77.2%, 51.5%)" stroke-width="1.5"></path><path d="M1586.13 652.95L1544.19 396.64" stroke="hsl(228.5, 77.2%, 51.5%)" stroke-width="1.5"></path><path d="M1586.13 652.95L1441.09 409.89" stroke="hsl(228.5, 77.2%, 51.5%)" stroke-width="1.5"></path><circle r="25" cx="49.5" cy="489.78" fill="url(&quot;#SvgjsRadialGradient1001&quot;)"></circle><circle r="25" cx="107.51" cy="681.65" fill="url(&quot;#SvgjsRadialGradient1001&quot;)"></circle><circle r="25" cx="553.98" cy="689.6" fill="url(&quot;#SvgjsRadialGradient1001&quot;)"></circle><circle r="25" cx="1001.68" cy="556.41" fill="url(&quot;#SvgjsRadialGradient1001&quot;)"></circle><circle r="25" cx="1258.2" cy="47.54" fill="url(&quot;#SvgjsRadialGradient1001&quot;)"></circle><circle r="25" cx="1416.48" cy="681.08" fill="url(&quot;#SvgjsRadialGradient1001&quot;)"></circle><circle r="5" cx="-110.71" cy="557.86" fill="#8b9ad9"></circle><circle r="5" cx="-111.94" cy="640.44" fill="#8b9ad9"></circle><circle r="5" cx="233.57" cy="507.91" fill="#8b9ad9"></circle><circle r="5" cx="258.11" cy="645.4" fill="#8b9ad9"></circle><circle r="5" cx="367.01" cy="545.88" fill="#8b9ad9"></circle><circle r="5" cx="354.1" cy="699.57" fill="#8b9ad9"></circle><circle r="5" cx="559.4" cy="487.67" fill="#8b9ad9"></circle><circle r="5" cx="684.32" cy="396.17" fill="#8b9ad9"></circle><circle r="5" cx="673.14" cy="513.45" fill="#8b9ad9"></circle><circle r="5" cx="687.21" cy="708.68" fill="#8b9ad9"></circle><circle r="5" cx="828.08" cy="410.27" fill="#8b9ad9"></circle><circle r="5" cx="817.38" cy="546.46" fill="#8b9ad9"></circle><circle r="5" cx="982.47" cy="388.02" fill="#8b9ad9"></circle><circle r="5" cx="941.19" cy="647.25" fill="#8b9ad9"></circle><circle r="5" cx="1104.75" cy="234.77" fill="#8b9ad9"></circle><circle r="5" cx="1122.21" cy="409.87" fill="#8b9ad9"></circle><circle r="5" cx="1110.91" cy="513.66" fill="#8b9ad9"></circle><circle r="5" cx="1114.64" cy="670.51" fill="#8b9ad9"></circle><circle r="5" cx="1285.63" cy="-52.43" fill="#8b9ad9"></circle><circle r="5" cx="1273.38" cy="238.05" fill="#8b9ad9"></circle><circle r="5" cx="1307.81" cy="676.17" fill="#8b9ad9"></circle><circle r="5" cx="1425.09" cy="-86.12" fill="#8b9ad9"></circle><circle r="5" cx="1431.46" cy="106.43" fill="#8b9ad9"></circle><circle r="5" cx="1441.4" cy="191.17" fill="#8b9ad9"></circle><circle r="5" cx="1441.09" cy="409.89" fill="#8b9ad9"></circle><circle r="5" cx="1398.4" cy="536.81" fill="#8b9ad9"></circle><circle r="5" cx="1586.25" cy="-71.26" fill="#8b9ad9"></circle><circle r="5" cx="1538.01" cy="72.97" fill="#8b9ad9"></circle><circle r="5" cx="1575.85" cy="229.38" fill="#8b9ad9"></circle><circle r="5" cx="1544.19" cy="396.64" fill="#8b9ad9"></circle><circle r="5" cx="1550.18" cy="502.04" fill="#8b9ad9"></circle><circle r="5" cx="1586.13" cy="652.95" fill="#8b9ad9"></circle></g><defs><mask id="SvgjsMask1000"><rect width="1440" height="560" fill="#ffffff"></rect></mask><radialGradient id="SvgjsRadialGradient1001"><stop stop-color="#ffffff" offset="0.1"></stop><stop stop-color="#1735b3" offset="0.2"></stop><stop stop-color="rgba(23, 53, 179, 0)" offset="1"></stop></radialGradient></defs></svg>