<svg xmlns="http://www.w3.org/2000/svg" version="1.1" xmlns:xlink="http://www.w3.org/1999/xlink" xmlns:svgjs="http://svgjs.dev/svgjs" width="1440" height="250" preserveAspectRatio="none" viewBox="0 0 1440 250"><g mask="url(&quot;#SvgjsMask1326&quot;)" fill="none"><rect width="1440" height="250" x="0" y="0" fill="url(&quot;#SvgjsLinearGradient1327&quot;)"></rect><path d="M20 250L270 0L423 0L173 250z" fill="url(&quot;#SvgjsLinearGradient1328&quot;)"></path><path d="M263.6 250L513.6 0L746.1 0L496.1 250z" fill="url(&quot;#SvgjsLinearGradient1328&quot;)"></path><path d="M521.2 250L771.2 0L871.7 0L621.7 250z" fill="url(&quot;#SvgjsLinearGradient1328&quot;)"></path><path d="M751.8000000000001 250L1001.8000000000001 0L1225.3000000000002 0L975.3000000000001 250z" fill="url(&quot;#SvgjsLinearGradient1328&quot;)"></path><path d="M1420 250L1170 0L840 0L1090 250z" fill="url(&quot;#SvgjsLinearGradient1329&quot;)"></path><path d="M1198.4 250L948.4000000000001 0L892.9000000000001 0L1142.9 250z" fill="url(&quot;#SvgjsLinearGradient1329&quot;)"></path><path d="M943.8 250L693.8 0L348.79999999999995 0L598.8 250z" fill="url(&quot;#SvgjsLinearGradient1329&quot;)"></path><path d="M703.1999999999999 250L453.19999999999993 0L225.19999999999993 0L475.19999999999993 250z" fill="url(&quot;#SvgjsLinearGradient1329&quot;)"></path><path d="M1302.206160899028 250L1440 112.20616089902802L1440 250z" fill="url(&quot;#SvgjsLinearGradient1328&quot;)"></path><path d="M0 250L137.79383910097198 250L 0 112.20616089902802z" fill="url(&quot;#SvgjsLinearGradient1329&quot;)"></path></g><defs><mask id="SvgjsMask1326"><rect width="1440" height="250" fill="#ffffff"></rect></mask><linearGradient x1="20.66%" y1="219%" x2="79.34%" y2="-119%" gradientUnits="userSpaceOnUse" id="SvgjsLinearGradient1327"><stop stop-color="#0e2a47" offset="0"></stop><stop stop-color="rgba(0, 52, 119, 1)" offset="1"></stop></linearGradient><linearGradient x1="0%" y1="100%" x2="100%" y2="0%" id="SvgjsLinearGradient1328"><stop stop-color="rgba(15, 70, 185, 0.2)" offset="0"></stop><stop stop-opacity="0" stop-color="rgba(15, 70, 185, 0.2)" offset="0.66"></stop></linearGradient><linearGradient x1="100%" y1="100%" x2="0%" y2="0%" id="SvgjsLinearGradient1329"><stop stop-color="rgba(15, 70, 185, 0.2)" offset="0"></stop><stop stop-opacity="0" stop-color="rgba(15, 70, 185, 0.2)" offset="0.66"></stop></linearGradient></defs></svg>