<svg xmlns="http://www.w3.org/2000/svg" version="1.1" xmlns:xlink="http://www.w3.org/1999/xlink" xmlns:svgjs="http://svgjs.dev/svgjs" width="1440" height="560" preserveAspectRatio="none" viewBox="0 0 1440 560"><g mask="url(&quot;#SvgjsMask1002&quot;)" fill="none"><rect width="1440" height="560" x="0" y="0" fill="url(&quot;#SvgjsLinearGradient1003&quot;)"></rect><path d="M1440 0L1380.2 0L1440 110.41z" fill="rgba(255, 255, 255, .1)"></path><path d="M1380.2 0L1440 110.41L1440 193.32999999999998L1310.58 0z" fill="rgba(255, 255, 255, .075)"></path><path d="M1310.58 0L1440 193.32999999999998L1440 369.95L657.2599999999999 0z" fill="rgba(255, 255, 255, .05)"></path><path d="M657.26 0L1440 369.95L1440 486.9L565.65 0z" fill="rgba(255, 255, 255, .025)"></path><path d="M0 560L545.36 560L0 330.36z" fill="rgba(0, 0, 0, .1)"></path><path d="M0 330.36L545.36 560L620.66 560L0 269.21000000000004z" fill="rgba(0, 0, 0, .075)"></path><path d="M0 269.21000000000004L620.66 560L775.21 560L0 223.65000000000003z" fill="rgba(0, 0, 0, .05)"></path><path d="M0 223.65000000000003L775.21 560L1202.79 560L0 157.35000000000002z" fill="rgba(0, 0, 0, .025)"></path></g><defs><mask id="SvgjsMask1002"><rect width="1440" height="560" fill="#ffffff"></rect></mask><linearGradient x1="15.28%" y1="-39.29%" x2="84.72%" y2="139.29%" gradientUnits="userSpaceOnUse" id="SvgjsLinearGradient1003"><stop stop-color="#0e2a47" offset="0"></stop><stop stop-color="#00459e" offset="1"></stop></linearGradient></defs></svg>